<svg xmlns="http://www.w3.org/2000/svg" xmlns:xlink="http://www.w3.org/1999/xlink" width="500" zoomAndPan="magnify" viewBox="0 0 375 374.999991" height="500" preserveAspectRatio="xMidYMid meet" version="1.0"><defs><g/><clipPath id="4507d4cf97"><path d="M 102.855469 99 L 272.355469 99 L 272.355469 249.628906 L 102.855469 249.628906 Z M 102.855469 99 " clip-rule="nonzero"/></clipPath></defs><g fill="#008037" fill-opacity="1"><g transform="translate(82.442732, 299.93776)"><g><path d="M 28.84375 -28.3125 L 16.421875 0 L 12.421875 0 L -0.046875 -28.3125 L 4.328125 -28.3125 L 14.515625 -5.0625 L 24.796875 -28.3125 Z M 28.84375 -28.3125 "/></g></g></g><g fill="#008037" fill-opacity="1"><g transform="translate(113.95301, 299.93776)"><g><path d="M 4.25 -28.3125 L 8.296875 -28.3125 L 8.296875 0 L 4.25 0 Z M 4.25 -28.3125 "/></g></g></g><g fill="#008037" fill-opacity="1"><g transform="translate(129.20277, 299.93776)"><g><path d="M 9.875 -24.796875 L 0.15625 -24.796875 L 0.15625 -28.3125 L 23.578125 -28.3125 L 23.578125 -24.796875 L 13.875 -24.796875 L 13.875 0 L 9.875 0 Z M 9.875 -24.796875 "/></g></g></g><g fill="#008037" fill-opacity="1"><g transform="translate(155.656923, 299.93776)"><g><path d="M 22.296875 -7.078125 L 7.234375 -7.078125 L 4.125 0 L -0.046875 0 L 12.78125 -28.3125 L 16.78125 -28.3125 L 29.65625 0 L 25.40625 0 Z M 20.875 -10.3125 L 14.765625 -24.1875 L 8.65625 -10.3125 Z M 20.875 -10.3125 "/></g></g></g><g fill="#008037" fill-opacity="1"><g transform="translate(187.976185, 299.93776)"><g><path d="M 30.5 0 L 30.46875 -20.625 L 20.234375 -3.4375 L 18.359375 -3.4375 L 8.125 -20.515625 L 8.125 0 L 4.25 0 L 4.25 -28.3125 L 7.5625 -28.3125 L 19.375 -8.421875 L 31.03125 -28.3125 L 34.34375 -28.3125 L 34.390625 0 Z M 30.5 0 "/></g></g></g><g fill="#008037" fill-opacity="1"><g transform="translate(229.315577, 299.93776)"><g><path d="M 24.796875 -3.515625 L 24.796875 0 L 4.25 0 L 4.25 -28.3125 L 24.234375 -28.3125 L 24.234375 -24.796875 L 8.296875 -24.796875 L 8.296875 -16.09375 L 22.484375 -16.09375 L 22.484375 -12.65625 L 8.296875 -12.65625 L 8.296875 -3.515625 Z M 24.796875 -3.515625 "/></g></g></g><g fill="#008037" fill-opacity="1"><g transform="translate(259.126995, 299.93776)"><g><path d="M 4.25 -28.3125 L 16.1875 -28.3125 C 19.175781 -28.3125 21.828125 -27.71875 24.140625 -26.53125 C 26.460938 -25.34375 28.265625 -23.675781 29.546875 -21.53125 C 30.828125 -19.394531 31.46875 -16.9375 31.46875 -14.15625 C 31.46875 -11.375 30.828125 -8.910156 29.546875 -6.765625 C 28.265625 -4.628906 26.460938 -2.96875 24.140625 -1.78125 C 21.828125 -0.59375 19.175781 0 16.1875 0 L 4.25 0 Z M 15.9375 -3.515625 C 18.226562 -3.515625 20.242188 -3.957031 21.984375 -4.84375 C 23.722656 -5.738281 25.0625 -6.988281 26 -8.59375 C 26.945312 -10.195312 27.421875 -12.050781 27.421875 -14.15625 C 27.421875 -16.257812 26.945312 -18.113281 26 -19.71875 C 25.0625 -21.320312 23.722656 -22.566406 21.984375 -23.453125 C 20.242188 -24.347656 18.226562 -24.796875 15.9375 -24.796875 L 8.296875 -24.796875 L 8.296875 -3.515625 Z M 15.9375 -3.515625 "/></g></g></g><g fill="#008037" fill-opacity="1"><g transform="translate(111.130049, 327.573336)"><g><path d="M 1.609375 -10.78125 L 3.15625 -10.78125 L 3.15625 0 L 1.609375 0 Z M 1.609375 -10.78125 "/></g></g></g><g fill="#008037" fill-opacity="1"><g transform="translate(119.90416, 327.573336)"><g><path d="M 10.875 -10.78125 L 10.875 0 L 9.625 0 L 3.15625 -8.03125 L 3.15625 0 L 1.609375 0 L 1.609375 -10.78125 L 2.875 -10.78125 L 9.34375 -2.734375 L 9.34375 -10.78125 Z M 10.875 -10.78125 "/></g></g></g><g fill="#008037" fill-opacity="1"><g transform="translate(136.402607, 327.573336)"><g><path d="M 3.75 -9.4375 L 0.0625 -9.4375 L 0.0625 -10.78125 L 8.96875 -10.78125 L 8.96875 -9.4375 L 5.28125 -9.4375 L 5.28125 0 L 3.75 0 Z M 3.75 -9.4375 "/></g></g></g><g fill="#008037" fill-opacity="1"><g transform="translate(149.438955, 327.573336)"><g><path d="M 9.4375 -1.34375 L 9.4375 0 L 1.609375 0 L 1.609375 -10.78125 L 9.21875 -10.78125 L 9.21875 -9.4375 L 3.15625 -9.4375 L 3.15625 -6.125 L 8.5625 -6.125 L 8.5625 -4.8125 L 3.15625 -4.8125 L 3.15625 -1.34375 Z M 9.4375 -1.34375 "/></g></g></g><g fill="#008037" fill-opacity="1"><g transform="translate(163.752434, 327.573336)"><g><path d="M 8.8125 0 L 6.5 -3.3125 C 6.207031 -3.289062 5.976562 -3.28125 5.8125 -3.28125 L 3.15625 -3.28125 L 3.15625 0 L 1.609375 0 L 1.609375 -10.78125 L 5.8125 -10.78125 C 7.207031 -10.78125 8.304688 -10.441406 9.109375 -9.765625 C 9.910156 -9.097656 10.3125 -8.179688 10.3125 -7.015625 C 10.3125 -6.179688 10.101562 -5.472656 9.6875 -4.890625 C 9.28125 -4.304688 8.695312 -3.878906 7.9375 -3.609375 L 10.5 0 Z M 5.765625 -4.59375 C 6.742188 -4.59375 7.488281 -4.800781 8 -5.21875 C 8.507812 -5.632812 8.765625 -6.234375 8.765625 -7.015625 C 8.765625 -7.796875 8.507812 -8.394531 8 -8.8125 C 7.488281 -9.226562 6.742188 -9.4375 5.765625 -9.4375 L 3.15625 -9.4375 L 3.15625 -4.59375 Z M 5.765625 -4.59375 "/></g></g></g><g fill="#008037" fill-opacity="1"><g transform="translate(178.942976, 327.573336)"><g><path d="M 11.609375 0 L 11.59375 -7.84375 L 7.703125 -1.3125 L 6.984375 -1.3125 L 3.09375 -7.796875 L 3.09375 0 L 1.609375 0 L 1.609375 -10.78125 L 2.875 -10.78125 L 7.375 -3.203125 L 11.796875 -10.78125 L 13.0625 -10.78125 L 13.078125 0 Z M 11.609375 0 "/></g></g></g><g fill="#008037" fill-opacity="1"><g transform="translate(197.641785, 327.573336)"><g><path d="M 9.4375 -1.34375 L 9.4375 0 L 1.609375 0 L 1.609375 -10.78125 L 9.21875 -10.78125 L 9.21875 -9.4375 L 3.15625 -9.4375 L 3.15625 -6.125 L 8.5625 -6.125 L 8.5625 -4.8125 L 3.15625 -4.8125 L 3.15625 -1.34375 Z M 9.4375 -1.34375 "/></g></g></g><g fill="#008037" fill-opacity="1"><g transform="translate(211.955265, 327.573336)"><g><path d="M 1.609375 -10.78125 L 6.15625 -10.78125 C 7.289062 -10.78125 8.300781 -10.550781 9.1875 -10.09375 C 10.070312 -9.644531 10.753906 -9.007812 11.234375 -8.1875 C 11.722656 -7.375 11.96875 -6.441406 11.96875 -5.390625 C 11.96875 -4.328125 11.722656 -3.390625 11.234375 -2.578125 C 10.753906 -1.765625 10.070312 -1.128906 9.1875 -0.671875 C 8.300781 -0.222656 7.289062 0 6.15625 0 L 1.609375 0 Z M 6.0625 -1.34375 C 6.9375 -1.34375 7.703125 -1.507812 8.359375 -1.84375 C 9.023438 -2.1875 9.535156 -2.660156 9.890625 -3.265625 C 10.253906 -3.878906 10.4375 -4.585938 10.4375 -5.390625 C 10.4375 -6.191406 10.253906 -6.894531 9.890625 -7.5 C 9.535156 -8.113281 9.023438 -8.585938 8.359375 -8.921875 C 7.703125 -9.265625 6.9375 -9.4375 6.0625 -9.4375 L 3.15625 -9.4375 L 3.15625 -1.34375 Z M 6.0625 -1.34375 "/></g></g></g><g fill="#008037" fill-opacity="1"><g transform="translate(228.669141, 327.573336)"><g><path d="M 1.609375 -10.78125 L 3.15625 -10.78125 L 3.15625 0 L 1.609375 0 Z M 1.609375 -10.78125 "/></g></g></g><g fill="#008037" fill-opacity="1"><g transform="translate(237.443251, 327.573336)"><g><path d="M 6.4375 0.125 C 5.351562 0.125 4.378906 -0.113281 3.515625 -0.59375 C 2.648438 -1.070312 1.96875 -1.726562 1.46875 -2.5625 C 0.976562 -3.394531 0.734375 -4.335938 0.734375 -5.390625 C 0.734375 -6.429688 0.976562 -7.367188 1.46875 -8.203125 C 1.96875 -9.046875 2.648438 -9.703125 3.515625 -10.171875 C 4.390625 -10.648438 5.367188 -10.890625 6.453125 -10.890625 C 7.285156 -10.890625 8.050781 -10.75 8.75 -10.46875 C 9.445312 -10.1875 10.046875 -9.769531 10.546875 -9.21875 L 9.546875 -8.25 C 8.734375 -9.101562 7.722656 -9.53125 6.515625 -9.53125 C 5.710938 -9.53125 4.988281 -9.347656 4.34375 -8.984375 C 3.695312 -8.628906 3.191406 -8.132812 2.828125 -7.5 C 2.460938 -6.875 2.28125 -6.171875 2.28125 -5.390625 C 2.28125 -4.609375 2.460938 -3.898438 2.828125 -3.265625 C 3.191406 -2.640625 3.695312 -2.144531 4.34375 -1.78125 C 4.988281 -1.425781 5.710938 -1.25 6.515625 -1.25 C 7.710938 -1.25 8.722656 -1.679688 9.546875 -2.546875 L 10.546875 -1.5625 C 10.046875 -1.007812 9.445312 -0.585938 8.75 -0.296875 C 8.050781 -0.015625 7.28125 0.125 6.4375 0.125 Z M 6.4375 0.125 "/></g></g></g><g fill="#008037" fill-opacity="1"><g transform="translate(252.572247, 327.573336)"><g><path d="M 8.484375 -2.6875 L 2.75 -2.6875 L 1.5625 0 L -0.015625 0 L 4.859375 -10.78125 L 6.390625 -10.78125 L 11.28125 0 L 9.671875 0 Z M 7.9375 -3.921875 L 5.625 -9.203125 L 3.296875 -3.921875 Z M 7.9375 -3.921875 "/></g></g></g><g fill="#008037" fill-opacity="1"><g transform="translate(69.496878, 243.205958)"><g><path d="M -2.234375 -6.21875 C -1.835938 -5.175781 -1.625 -4.109375 -1.59375 -3.015625 C -1.5625 -1.929688 -1.71875 -1.023438 -2.0625 -0.296875 L -3.4375 -0.4375 C -3.125 -1.144531 -2.972656 -1.976562 -2.984375 -2.9375 C -2.992188 -3.90625 -3.164062 -4.835938 -3.5 -5.734375 C -3.988281 -7.003906 -4.582031 -7.863281 -5.28125 -8.3125 C -5.988281 -8.757812 -6.707031 -8.84375 -7.4375 -8.5625 C -8 -8.351562 -8.378906 -8.015625 -8.578125 -7.546875 C -8.785156 -7.078125 -8.882812 -6.5625 -8.875 -6 C -8.863281 -5.4375 -8.800781 -4.671875 -8.6875 -3.703125 C -8.550781 -2.535156 -8.484375 -1.585938 -8.484375 -0.859375 C -8.492188 -0.140625 -8.664062 0.539062 -9 1.1875 C -9.34375 1.832031 -9.953125 2.320312 -10.828125 2.65625 C -11.535156 2.925781 -12.253906 2.984375 -12.984375 2.828125 C -13.710938 2.679688 -14.398438 2.28125 -15.046875 1.625 C -15.691406 0.976562 -16.234375 0.078125 -16.671875 -1.078125 C -16.972656 -1.878906 -17.160156 -2.707031 -17.234375 -3.5625 C -17.304688 -4.414062 -17.253906 -5.195312 -17.078125 -5.90625 L -15.703125 -5.859375 C -15.878906 -5.128906 -15.929688 -4.390625 -15.859375 -3.640625 C -15.796875 -2.898438 -15.644531 -2.207031 -15.40625 -1.5625 C -14.9375 -0.320312 -14.34375 0.515625 -13.625 0.953125 C -12.90625 1.390625 -12.171875 1.46875 -11.421875 1.1875 C -10.859375 0.96875 -10.472656 0.625 -10.265625 0.15625 C -10.054688 -0.3125 -9.957031 -0.835938 -9.96875 -1.421875 C -9.988281 -2.003906 -10.0625 -2.773438 -10.1875 -3.734375 C -10.3125 -4.859375 -10.367188 -5.785156 -10.359375 -6.515625 C -10.359375 -7.253906 -10.191406 -7.941406 -9.859375 -8.578125 C -9.535156 -9.210938 -8.941406 -9.691406 -8.078125 -10.015625 C -7.367188 -10.285156 -6.644531 -10.335938 -5.90625 -10.171875 C -5.175781 -10.015625 -4.492188 -9.609375 -3.859375 -8.953125 C -3.222656 -8.296875 -2.679688 -7.382812 -2.234375 -6.21875 Z M -2.234375 -6.21875 "/></g></g></g><g fill="#008037" fill-opacity="1"><g transform="translate(62.507315, 223.145454)"><g><path d="M -6.203125 -10.921875 L -4.609375 -2.6875 L -0.328125 -1.671875 L -0.015625 -0.046875 L -16.125 -3.96875 L -16.421875 -5.5 L -2.90625 -15.109375 L -2.59375 -13.46875 Z M -7.359375 -10.125 L -14.625 -5.03125 L -5.984375 -3.015625 Z M -7.359375 -10.125 "/></g></g></g><g fill="#008037" fill-opacity="1"><g transform="translate(58.74532, 200.075704)"><g><path d="M 0.109375 -8.53125 C 0.109375 -6.570312 -0.445312 -5.046875 -1.5625 -3.953125 C -2.675781 -2.867188 -4.300781 -2.320312 -6.4375 -2.3125 L -15.078125 -2.296875 L -15.09375 -3.890625 L -6.515625 -3.90625 C -4.765625 -3.90625 -3.457031 -4.300781 -2.59375 -5.09375 C -1.738281 -5.882812 -1.3125 -7.03125 -1.3125 -8.53125 C -1.320312 -10.03125 -1.753906 -11.171875 -2.609375 -11.953125 C -3.472656 -12.742188 -4.78125 -13.140625 -6.53125 -13.140625 L -15.109375 -13.125 L -15.109375 -14.671875 L -6.46875 -14.6875 C -4.332031 -14.695312 -2.703125 -14.160156 -1.578125 -13.078125 C -0.460938 -11.992188 0.0976562 -10.476562 0.109375 -8.53125 Z M -18.984375 -10.03125 L -19 -12.078125 L -16.3125 -8.59375 L -16.3125 -7.09375 Z M -18.984375 -10.03125 "/></g></g></g><g fill="#008037" fill-opacity="1"><g transform="translate(59.432016, 175.155503)"><g><path d="M -14.328125 -5.3125 L -13.140625 -11.34375 C -12.828125 -12.90625 -12.238281 -14.222656 -11.375 -15.296875 C -10.507812 -16.367188 -9.453125 -17.125 -8.203125 -17.5625 C -6.953125 -18.007812 -5.609375 -18.09375 -4.171875 -17.8125 C -2.742188 -17.53125 -1.535156 -16.945312 -0.546875 -16.0625 C 0.441406 -15.175781 1.132812 -14.070312 1.53125 -12.75 C 1.925781 -11.4375 1.96875 -10 1.65625 -8.4375 L 0.46875 -2.40625 Z M 0.296875 -8.609375 C 0.554688 -9.898438 0.519531 -11.082031 0.1875 -12.15625 C -0.132812 -13.238281 -0.695312 -14.132812 -1.5 -14.84375 C -2.300781 -15.5625 -3.289062 -16.035156 -4.46875 -16.265625 C -5.65625 -16.503906 -6.753906 -16.441406 -7.765625 -16.078125 C -8.785156 -15.722656 -9.644531 -15.109375 -10.34375 -14.234375 C -11.039062 -13.359375 -11.519531 -12.273438 -11.78125 -10.984375 L -12.640625 -6.609375 L -0.5625 -4.234375 Z M 0.296875 -8.609375 "/></g></g></g><g fill="#008037" fill-opacity="1"><g transform="translate(65.274451, 150.12506)"><g><path d="M 3.59375 -12.6875 L 4.875 -12.171875 L 0.90625 -2.28125 L -13.09375 -7.890625 L -9.234375 -17.484375 L -7.9375 -16.96875 L -11.203125 -8.84375 L -6.234375 -6.84375 L -3.328125 -14.09375 L -2.0625 -13.59375 L -4.96875 -6.34375 L 0.21875 -4.265625 Z M 3.59375 -12.6875 "/></g></g></g><g fill="#008037" fill-opacity="1"><g transform="translate(74.490453, 129.521106)"><g/></g></g><g fill="#008037" fill-opacity="1"><g transform="translate(81.632318, 117.661225)"><g><path d="M 7 -11.171875 L 8.078125 -10.328125 L 1.515625 -1.9375 L -10.359375 -11.234375 L -3.984375 -19.375 L -2.890625 -18.515625 L -8.28125 -11.625 L -4.0625 -8.328125 L 0.734375 -14.46875 L 1.8125 -13.625 L -2.984375 -7.484375 L 1.421875 -4.03125 Z M 7 -11.171875 "/></g></g></g><g fill="#008037" fill-opacity="1"><g transform="translate(95.752969, 100.399562)"><g><path d="M 3.90625 -23.234375 L 13.734375 -11.796875 L 12.578125 -10.796875 L 4.71875 -19.953125 L 6.828125 -8.390625 L 6.265625 -7.90625 L -4.796875 -11.703125 L 3.015625 -2.59375 L 1.859375 -1.59375 L -7.96875 -13.03125 L -6.96875 -13.890625 L 5.296875 -9.671875 L 2.921875 -22.375 Z M 3.90625 -23.234375 "/></g></g></g><g fill="#008037" fill-opacity="1"><g transform="translate(118.24529, 82.767965)"><g/></g></g><g fill="#008037" fill-opacity="1"><g transform="translate(130.187636, 75.80631)"><g><path d="M 1.59375 -17.03125 C 3.375 -17.78125 4.941406 -17.941406 6.296875 -17.515625 C 7.660156 -17.097656 8.648438 -16.148438 9.265625 -14.671875 C 9.890625 -13.191406 9.878906 -11.816406 9.234375 -10.546875 C 8.585938 -9.285156 7.375 -8.28125 5.59375 -7.53125 L 1.875 -5.96875 L 3.734375 -1.578125 L 2.265625 -0.953125 L -3.59375 -14.84375 Z M 5.015625 -8.796875 C 6.398438 -9.378906 7.328125 -10.125 7.796875 -11.03125 C 8.265625 -11.945312 8.265625 -12.953125 7.796875 -14.046875 C 7.328125 -15.171875 6.601562 -15.878906 5.625 -16.171875 C 4.644531 -16.460938 3.460938 -16.316406 2.078125 -15.734375 L -1.59375 -14.1875 L 1.34375 -7.25 Z M 5.015625 -8.796875 "/></g></g></g><g fill="#008037" fill-opacity="1"><g transform="translate(152.027012, 67.367823)"><g><path d="M 12.453125 -2.75 L 8.03125 -6.734375 C 7.664062 -6.609375 7.28125 -6.503906 6.875 -6.421875 L 2.921875 -5.546875 L 3.953125 -0.875 L 2.390625 -0.53125 L -0.859375 -15.25 L 4.65625 -16.46875 C 6.539062 -16.875 8.113281 -16.742188 9.375 -16.078125 C 10.632812 -15.421875 11.4375 -14.304688 11.78125 -12.734375 C 12.039062 -11.585938 11.960938 -10.550781 11.546875 -9.625 C 11.140625 -8.707031 10.441406 -7.957031 9.453125 -7.375 L 14.140625 -3.125 Z M 6.53125 -7.734375 C 8 -8.054688 9.046875 -8.625 9.671875 -9.4375 C 10.296875 -10.25 10.476562 -11.234375 10.21875 -12.390625 C 9.957031 -13.578125 9.375 -14.40625 8.46875 -14.875 C 7.5625 -15.34375 6.375 -15.414062 4.90625 -15.09375 L 1 -14.234375 L 2.625 -6.875 Z M 6.53125 -7.734375 "/></g></g></g><g fill="#008037" fill-opacity="1"><g transform="translate(175.346022, 63.192164)"><g><path d="M 1.421875 -15.21875 L 3 -15.328125 L 4.03125 -0.28125 L 2.453125 -0.171875 Z M 1.421875 -15.21875 "/></g></g></g><g fill="#008037" fill-opacity="1"><g transform="translate(189.897373, 62.289611)"><g><path d="M 19.515625 -13.203125 L 18.015625 1.796875 L 16.5 1.65625 L 17.703125 -10.34375 L 10.796875 -0.84375 L 10.046875 -0.921875 L 5.15625 -11.546875 L 3.96875 0.390625 L 2.4375 0.25 L 3.9375 -14.75 L 5.25 -14.625 L 10.65625 -2.84375 L 18.21875 -13.328125 Z M 19.515625 -13.203125 "/></g></g></g><g fill="#008037" fill-opacity="1"><g transform="translate(218.041359, 66.18954)"><g><path d="M 12.9375 2.515625 L 12.53125 3.828125 L 2.34375 0.71875 L 6.75 -13.703125 L 16.640625 -10.6875 L 16.234375 -9.359375 L 7.875 -11.90625 L 6.3125 -6.78125 L 13.765625 -4.5 L 13.359375 -3.203125 L 5.90625 -5.484375 L 4.28125 -0.125 Z M 12.9375 2.515625 "/></g></g></g><g fill="#008037" fill-opacity="1"><g transform="translate(239.338794, 73.616134)"><g><path d="M 8.65625 -12.578125 L 10.09375 -11.890625 L 3.65625 1.734375 L 2.21875 1.046875 Z M 8.65625 -12.578125 "/></g></g></g><g fill="#008037" fill-opacity="1"><g transform="translate(252.476653, 80.129476)"><g><path d="M 10.59375 7.09375 L 10.421875 1.15625 C 10.066406 0.976562 9.71875 0.769531 9.375 0.53125 L 6.015625 -1.71875 L 3.359375 2.25 L 2.03125 1.359375 L 10.421875 -11.15625 L 15.109375 -8.015625 C 16.710938 -6.929688 17.707031 -5.703125 18.09375 -4.328125 C 18.488281 -2.960938 18.238281 -1.617188 17.34375 -0.296875 C 16.6875 0.679688 15.882812 1.34375 14.9375 1.6875 C 14 2.03125 12.972656 2.039062 11.859375 1.71875 L 12.03125 8.0625 Z M 10.109375 -0.609375 C 11.347656 0.222656 12.476562 0.582031 13.5 0.46875 C 14.53125 0.351562 15.375 -0.195312 16.03125 -1.1875 C 16.707031 -2.195312 16.898438 -3.191406 16.609375 -4.171875 C 16.316406 -5.148438 15.550781 -6.054688 14.3125 -6.890625 L 10.984375 -9.125 L 6.78125 -2.84375 Z M 10.109375 -0.609375 "/></g></g></g><g fill="#008037" fill-opacity="1"><g transform="translate(271.610778, 93.730947)"><g><path d="M 6.3125 6.46875 C 5.25 5.414062 4.523438 4.222656 4.140625 2.890625 C 3.765625 1.566406 3.742188 0.253906 4.078125 -1.046875 C 4.410156 -2.347656 5.085938 -3.515625 6.109375 -4.546875 C 7.128906 -5.566406 8.289062 -6.25 9.59375 -6.59375 C 10.90625 -6.945312 12.222656 -6.929688 13.546875 -6.546875 C 14.867188 -6.171875 16.0625 -5.457031 17.125 -4.40625 C 18.1875 -3.351562 18.910156 -2.171875 19.296875 -0.859375 C 19.679688 0.453125 19.703125 1.765625 19.359375 3.078125 C 19.023438 4.398438 18.347656 5.570312 17.328125 6.59375 C 16.304688 7.625 15.140625 8.3125 13.828125 8.65625 C 12.515625 9 11.195312 8.984375 9.875 8.609375 C 8.5625 8.234375 7.375 7.519531 6.3125 6.46875 Z M 7.328125 5.453125 C 8.171875 6.296875 9.117188 6.863281 10.171875 7.15625 C 11.234375 7.457031 12.296875 7.460938 13.359375 7.171875 C 14.421875 6.878906 15.367188 6.316406 16.203125 5.484375 C 17.035156 4.648438 17.59375 3.703125 17.875 2.640625 C 18.15625 1.578125 18.144531 0.519531 17.84375 -0.53125 C 17.539062 -1.59375 16.96875 -2.546875 16.125 -3.390625 C 15.28125 -4.234375 14.320312 -4.804688 13.25 -5.109375 C 12.1875 -5.410156 11.125 -5.414062 10.0625 -5.125 C 9 -4.84375 8.050781 -4.285156 7.21875 -3.453125 C 6.382812 -2.617188 5.828125 -1.664062 5.546875 -0.59375 C 5.265625 0.46875 5.28125 1.53125 5.59375 2.59375 C 5.90625 3.65625 6.484375 4.609375 7.328125 5.453125 Z M 7.328125 5.453125 "/></g></g></g><g fill="#008037" fill-opacity="1"><g transform="translate(289.348686, 112.935759)"><g/></g></g><g fill="#008037" fill-opacity="1"><g transform="translate(297.331217, 124.221328)"><g><path d="M 17.125 0.09375 C 18.019531 1.789062 18.3125 3.335938 18 4.734375 C 17.695312 6.128906 16.835938 7.203125 15.421875 7.953125 C 14.003906 8.703125 12.632812 8.804688 11.3125 8.265625 C 10 7.734375 8.894531 6.617188 8 4.921875 L 6.09375 1.34375 L 1.890625 3.578125 L 1.15625 2.171875 L 14.484375 -4.890625 Z M 9.203125 4.234375 C 9.910156 5.554688 10.734375 6.410156 11.671875 6.796875 C 12.617188 7.191406 13.617188 7.109375 14.671875 6.546875 C 15.753906 5.972656 16.398438 5.1875 16.609375 4.1875 C 16.816406 3.1875 16.566406 2.023438 15.859375 0.703125 L 13.984375 -2.828125 L 7.328125 0.703125 Z M 9.203125 4.234375 "/></g></g></g><g fill="#008037" fill-opacity="1"><g transform="translate(307.599483, 145.319483)"><g><path d="M 15.09375 -2.359375 L 15.578125 -0.84375 L 2.5625 3.421875 L 5.1875 11.453125 L 3.875 11.875 L 0.765625 2.328125 Z M 15.09375 -2.359375 "/></g></g></g><g fill="#008037" fill-opacity="1"><g transform="translate(313.483757, 165.166526)"><g><path d="M 5.6875 11.203125 L 4.484375 2.90625 L 0.25 1.6875 L 0 0.046875 L 15.921875 4.6875 L 16.140625 6.234375 L 2.203125 15.234375 L 1.96875 13.578125 Z M 6.875 10.4375 L 14.375 5.703125 L 5.84375 3.28125 Z M 6.875 10.4375 "/></g></g></g><g fill="#008037" fill-opacity="1"><g transform="translate(316.184908, 188.372638)"><g><path d="M 14.375 15.71875 L -0.6875 15.03125 L -0.625 13.71875 L 12.03125 4.609375 L -0.1875 4.046875 L -0.109375 2.453125 L 14.953125 3.140625 L 14.890625 4.453125 L 2.234375 13.59375 L 14.453125 14.15625 Z M 14.375 15.71875 "/></g></g></g><g fill="#008037" fill-opacity="1"><g transform="translate(314.273157, 213.670939)"><g><path d="M -2.3125 8.75 C -1.945312 7.289062 -1.296875 6.054688 -0.359375 5.046875 C 0.578125 4.035156 1.691406 3.335938 2.984375 2.953125 C 4.285156 2.578125 5.640625 2.566406 7.046875 2.921875 C 8.441406 3.265625 9.625 3.910156 10.59375 4.859375 C 11.5625 5.804688 12.222656 6.945312 12.578125 8.28125 C 12.929688 9.613281 12.925781 11.007812 12.5625 12.46875 C 12.195312 13.90625 11.546875 15.125 10.609375 16.125 C 9.679688 17.132812 8.5625 17.828125 7.25 18.203125 C 5.945312 18.585938 4.597656 18.609375 3.203125 18.265625 C 1.796875 17.910156 0.609375 17.257812 -0.359375 16.3125 C -1.328125 15.363281 -1.984375 14.222656 -2.328125 12.890625 C -2.679688 11.566406 -2.675781 10.1875 -2.3125 8.75 Z M -0.921875 9.09375 C -1.210938 10.238281 -1.21875 11.34375 -0.9375 12.40625 C -0.65625 13.476562 -0.117188 14.394531 0.671875 15.15625 C 1.472656 15.914062 2.445312 16.441406 3.59375 16.734375 C 4.726562 17.015625 5.828125 17.003906 6.890625 16.703125 C 7.953125 16.410156 8.859375 15.859375 9.609375 15.046875 C 10.367188 14.242188 10.894531 13.269531 11.1875 12.125 C 11.476562 10.957031 11.476562 9.835938 11.1875 8.765625 C 10.90625 7.703125 10.363281 6.785156 9.5625 6.015625 C 8.757812 5.242188 7.789062 4.71875 6.65625 4.4375 C 5.507812 4.144531 4.40625 4.148438 3.34375 4.453125 C 2.289062 4.765625 1.390625 5.320312 0.640625 6.125 C -0.109375 6.9375 -0.628906 7.925781 -0.921875 9.09375 Z M -0.921875 9.09375 "/></g></g></g><g fill="#008037" fill-opacity="1"><g transform="translate(306.852666, 238.759174)"><g><path d="M -0.96875 2.0625 C -0.851562 1.769531 -0.644531 1.5625 -0.34375 1.4375 C -0.0507812 1.320312 0.25 1.332031 0.5625 1.46875 C 0.863281 1.59375 1.070312 1.800781 1.1875 2.09375 C 1.300781 2.382812 1.300781 2.675781 1.1875 2.96875 C 1.0625 3.25 0.851562 3.453125 0.5625 3.578125 C 0.269531 3.710938 -0.0234375 3.71875 -0.328125 3.59375 C -0.640625 3.457031 -0.851562 3.238281 -0.96875 2.9375 C -1.09375 2.632812 -1.09375 2.34375 -0.96875 2.0625 Z M -0.96875 2.0625 "/></g></g></g><g clip-path="url(#4507d4cf97)"><path fill="#2b7232" d="M 168.246094 158.6875 C 173.347656 160.613281 178.445312 162.5625 183.871094 164.621094 C 183.675781 153.414062 183.480469 142.515625 183.28125 131.617188 C 183.457031 138.511719 179.605469 143.0625 174.527344 146.851562 C 173.128906 147.898438 171.332031 148.292969 169.363281 147.550781 C 169.910156 146.652344 170.390625 145.863281 170.875 145.078125 C 168.136719 146.414062 165.316406 146.652344 162.078125 146.304688 C 162.820312 145.339844 163.433594 144.550781 164.332031 143.371094 C 161.09375 144.902344 158.160156 145.472656 154.832031 144.617188 C 155.949219 143.328125 156.957031 142.1875 157.984375 141.007812 C 155.707031 141.640625 153.609375 142.386719 151.417969 142.78125 C 149.230469 143.152344 147.042969 142.867188 144.722656 141.75 C 145.816406 140.984375 146.734375 140.351562 147.65625 139.714844 C 142.929688 140.875 138.355469 141.050781 133.671875 138.46875 C 134.875 137.832031 135.792969 137.332031 136.734375 136.828125 C 132.050781 137.394531 127.804688 136.9375 124.0625 133.371094 C 125.378906 132.886719 126.429688 132.492188 127.28125 132.1875 C 124.699219 132.011719 121.984375 131.945312 119.335938 131.597656 C 117.5 131.335938 116.011719 130.238281 114.960938 128.640625 C 114.457031 127.855469 114.414062 127.265625 115.507812 126.980469 C 116.363281 126.738281 117.191406 126.410156 118.046875 125.929688 C 112.707031 125.230469 107.34375 124.769531 102.882812 121.269531 C 112.3125 120.609375 121.242188 117.917969 130.433594 115.273438 C 129.929688 114.855469 129.601562 114.59375 129.183594 114.265625 C 136.800781 112.6875 143.714844 109.558594 150.71875 106.671875 C 155.753906 104.59375 160.699219 105.203125 165.382812 107.832031 C 168.75 109.734375 170.304688 112.863281 171.113281 116.476562 C 171.355469 117.613281 171.574219 118.75 171.945312 119.84375 C 172.953125 122.753906 174.792969 124.964844 177.832031 125.839844 C 179.496094 126.324219 181.246094 126.542969 182.953125 126.871094 C 183.0625 126.542969 183.195312 126.34375 183.152344 126.277344 C 181.617188 124.550781 182.714844 122.207031 181.773438 120.347656 C 181.421875 119.671875 181.507812 118.707031 180.414062 118.621094 C 180.261719 118.597656 180.019531 118.160156 180.019531 117.917969 C 180.109375 116.757812 180.328125 115.601562 180.394531 114.441406 C 180.414062 114.003906 180.195312 113.519531 179.976562 113.125 C 177.921875 109.714844 178.292969 105.488281 180.917969 102.621094 C 183.632812 99.667969 187.832031 98.878906 191.421875 100.675781 C 195.734375 102.839844 197.460938 108.3125 195.164062 112.578125 C 194.878906 113.105469 194.550781 113.609375 194.246094 114.132812 C 194.398438 114.132812 194.574219 114.132812 194.726562 114.132812 C 194.75 115.511719 195.054688 116.976562 194.683594 118.246094 C 194.507812 118.859375 193.195312 119.167969 193.085938 120.28125 C 192.976562 121.464844 192.757812 122.644531 192.496094 123.828125 C 192.296875 124.726562 191.992188 125.601562 191.730469 126.496094 C 196.894531 127.375 201.816406 124.070312 203.085938 118.859375 C 203.304688 117.984375 203.480469 117.085938 203.679688 116.210938 C 205.054688 110.28125 208.777344 106.824219 214.773438 105.753906 C 218.644531 105.050781 222.191406 105.90625 225.800781 107.328125 C 231.492188 109.605469 237.292969 111.59375 243.070312 113.675781 C 243.8125 113.9375 244.621094 114.003906 245.605469 114.222656 C 245.191406 114.550781 244.90625 114.769531 244.316406 115.226562 C 253.464844 117.941406 262.390625 120.546875 272.109375 121.070312 C 269.898438 123.304688 267.25 124.003906 264.625 124.570312 C 262 125.140625 259.328125 125.425781 256.265625 125.90625 C 257.488281 126.34375 258.34375 126.695312 259.242188 126.9375 C 260.3125 127.21875 260.3125 127.789062 259.808594 128.597656 C 258.824219 130.175781 257.359375 131.246094 255.585938 131.53125 C 253.417969 131.882812 251.210938 131.859375 249 131.96875 C 248.472656 131.992188 247.949219 131.902344 247.359375 132.144531 C 248.363281 132.492188 249.394531 132.867188 250.726562 133.347656 C 247.007812 136.914062 242.785156 137.375 238.078125 136.785156 C 239 137.308594 239.894531 137.8125 241.035156 138.46875 C 236.4375 141.074219 231.84375 140.832031 227.09375 139.714844 C 227.992188 140.328125 228.886719 140.941406 230.046875 141.730469 C 227.773438 142.824219 225.5625 143.152344 223.351562 142.757812 C 221.164062 142.363281 219.039062 141.621094 216.765625 140.984375 C 217.769531 142.121094 218.753906 143.261719 219.914062 144.597656 C 216.589844 145.425781 213.679688 144.96875 210.636719 143.699219 C 211.273438 144.488281 211.929688 145.273438 212.738281 146.28125 C 209.476562 146.632812 206.652344 146.433594 203.851562 145.011719 C 204.355469 145.820312 204.835938 146.609375 205.40625 147.527344 C 203.371094 148.292969 201.664062 147.703125 200.109375 146.761719 C 196.347656 144.464844 194.222656 140.808594 192.234375 137.046875 C 192.058594 136.71875 191.90625 136.367188 191.488281 136.082031 C 191.3125 145.472656 191.136719 154.835938 190.964844 164.640625 C 196.347656 162.605469 201.46875 160.660156 206.589844 158.710938 C 206.542969 158.558594 206.5 158.382812 206.480469 158.230469 C 203.546875 159.324219 200.570312 159.324219 197.570312 158.710938 C 195.363281 158.25 193.71875 157.027344 192.890625 154.882812 C 192.277344 153.285156 192.824219 152.300781 194.378906 151.6875 C 195.382812 151.292969 196.347656 150.746094 197.242188 150.15625 C 199.542969 148.621094 201.816406 147.417969 204.597656 149.191406 C 205.121094 149.542969 205.953125 149.410156 206.652344 149.496094 C 209.324219 149.847656 212.058594 150 214.664062 150.65625 C 216.828125 151.183594 218.582031 152.671875 219.761719 154.664062 C 221.140625 156.9375 220.855469 159.082031 219.238281 161.183594 C 217.398438 163.546875 215.058594 165.035156 212.277344 166 C 208.578125 167.3125 204.902344 168.644531 201.203125 169.980469 C 200.746094 170.15625 200.308594 170.417969 199.628906 170.746094 C 200.65625 171.359375 201.445312 171.929688 202.300781 172.367188 C 206.347656 174.445312 208.753906 178.582031 207.988281 183.046875 C 207.703125 184.707031 206.699219 186.546875 205.429688 187.640625 C 203.347656 189.480469 200.789062 190.792969 198.449219 192.300781 C 198.03125 192.566406 197.570312 192.761719 197.441406 192.851562 C 198.558594 194.164062 199.652344 195.519531 200.832031 196.8125 C 204.707031 201.011719 205.777344 208.191406 203.066406 212.347656 C 201.359375 214.996094 198.796875 216.726562 196.195312 218.367188 C 195.230469 218.980469 194.246094 219.570312 193.152344 220.25 C 193.4375 220.6875 193.65625 220.992188 193.851562 221.320312 C 194.507812 222.285156 195.253906 223.179688 195.800781 224.1875 C 197.351562 227.164062 197.417969 230.097656 195.078125 232.742188 C 193.589844 234.429688 191.992188 236.027344 190.371094 237.734375 C 190.722656 238.433594 191.203125 239.199219 191.511719 240.03125 C 193.21875 244.453125 191.90625 247.101562 188.316406 249.398438 C 187.964844 249.636719 187.332031 249.746094 186.957031 249.59375 C 184.222656 248.5 182.515625 245.632812 182.933594 242.679688 C 183.128906 241.324219 183.761719 240.007812 184.09375 238.652344 C 184.222656 238.128906 184.203125 237.363281 183.894531 237.011719 C 182.691406 235.589844 181.335938 234.320312 180.066406 232.960938 C 177.875 230.597656 177.484375 227.863281 178.816406 224.996094 C 179.582031 223.378906 180.65625 221.910156 181.683594 220.25 C 180.832031 219.699219 179.910156 219.132812 178.992188 218.542969 C 178.226562 218.058594 177.460938 217.601562 176.695312 217.074219 C 168.925781 211.757812 168.292969 202.019531 175.316406 195.652344 C 176.191406 194.863281 177.132812 194.140625 178.183594 193.265625 C 176.652344 192.433594 175.230469 191.734375 173.851562 190.925781 C 172.800781 190.3125 171.769531 189.675781 170.808594 188.953125 C 165.226562 184.730469 165.402344 177.3125 171.179688 173.261719 C 172.449219 172.386719 173.828125 171.667969 175.425781 170.703125 C 173.085938 169.828125 170.984375 169.0625 168.882812 168.273438 C 166.386719 167.355469 163.871094 166.457031 161.398438 165.472656 C 159.167969 164.574219 157.195312 163.304688 155.707031 161.378906 C 153.5 158.492188 153.871094 154.96875 156.671875 152.648438 C 159.605469 150.199219 163.171875 149.652344 166.824219 149.34375 C 168.488281 149.214844 170.128906 148.753906 171.792969 148.46875 C 173.9375 148.074219 175.839844 148.578125 177.59375 149.914062 C 178.488281 150.59375 179.429688 151.25 180.460938 151.664062 C 182.101562 152.34375 182.648438 153.261719 182.011719 154.96875 C 181.269531 156.980469 179.691406 158.078125 177.746094 158.6875 C 175.230469 159.476562 172.667969 159.324219 170.128906 158.734375 C 169.5625 158.601562 168.992188 158.449219 168.421875 158.316406 C 168.292969 158.425781 168.269531 158.558594 168.246094 158.6875 Z M 188.863281 239.703125 C 189.167969 241.367188 189.476562 243.007812 189.78125 244.671875 C 190.21875 242.855469 190.242188 241.148438 188.820312 239.746094 C 188.316406 238.871094 187.945312 237.910156 187.308594 237.164062 C 186.191406 235.875 184.835938 234.800781 183.71875 233.511719 C 180.351562 229.660156 180.523438 227.207031 184.464844 223.96875 C 186.324219 222.4375 188.359375 221.125 190.328125 219.722656 C 193.371094 217.601562 196.542969 215.609375 199.476562 213.332031 C 200.636719 212.4375 201.753906 211.035156 202.082031 209.65625 C 202.496094 207.972656 202.300781 206.046875 201.992188 204.296875 C 201.183594 199.765625 198.207031 196.789062 194.332031 194.753906 C 191.136719 193.070312 187.722656 191.800781 184.464844 190.222656 C 181.007812 188.539062 177.503906 186.855469 174.222656 184.816406 C 171.597656 183.199219 171.464844 180.964844 173.851562 179.019531 C 175.6875 177.53125 177.875 176.304688 180.085938 175.472656 C 188.578125 172.324219 197.15625 169.476562 205.648438 166.347656 C 209.367188 164.992188 213.242188 163.964844 216.480469 161.488281 C 219.652344 159.0625 219.476562 155.011719 215.910156 153.261719 C 214.269531 152.453125 212.429688 151.949219 210.636719 151.554688 C 207.902344 150.984375 205.121094 150.59375 202.34375 150.242188 C 200.746094 150.042969 199.167969 150.109375 198.054688 151.730469 C 197.636719 152.34375 196.804688 152.691406 196.128906 153.066406 C 195.625 153.347656 195.054688 153.480469 194.027344 153.875 C 195.035156 154.859375 195.667969 155.734375 196.542969 156.324219 C 199.039062 157.988281 201.753906 157.246094 204.421875 156.808594 C 205.496094 156.632812 206.632812 156.433594 207.660156 156.652344 C 208.273438 156.785156 208.972656 157.617188 209.171875 158.273438 C 209.28125 158.667969 208.601562 159.453125 208.121094 159.828125 C 207.441406 160.332031 206.632812 160.660156 205.824219 160.964844 C 202.410156 162.257812 198.972656 163.503906 195.558594 164.816406 C 189.933594 166.984375 184.265625 169.105469 178.707031 171.425781 C 176.214844 172.476562 173.71875 173.703125 171.597656 175.320312 C 167.460938 178.449219 167.613281 184.597656 171.75 187.664062 C 173.28125 188.800781 174.945312 189.808594 176.671875 190.550781 C 181.050781 192.433594 185.558594 194.054688 189.933594 195.957031 C 193.171875 197.359375 196.257812 199.109375 198.273438 202.195312 C 200.089844 204.972656 199.828125 207.949219 197.550781 210.355469 C 197.003906 210.949219 196.433594 211.515625 195.777344 211.996094 C 192.867188 214.164062 189.914062 216.242188 187.023438 218.410156 C 184.550781 220.25 182.1875 222.21875 180.742188 225.019531 C 179.300781 227.863281 179.628906 230.707031 181.835938 232.941406 C 184.113281 235.28125 186.5 237.449219 188.863281 239.703125 Z M 215.800781 143.0625 C 212.867188 139.429688 210.175781 136.105469 207.507812 132.777344 C 207.59375 132.691406 207.683594 132.601562 207.769531 132.515625 C 209.71875 133.785156 211.664062 135.121094 213.65625 136.34375 C 215.890625 137.703125 218.097656 139.101562 220.460938 140.175781 C 221.796875 140.789062 223.394531 140.832031 224.863281 141.136719 C 224.925781 140.984375 224.992188 140.832031 225.082031 140.679688 C 224.445312 139.671875 223.789062 138.664062 223.089844 137.550781 C 225.429688 137.941406 227.488281 138.445312 229.566406 138.601562 C 231.625 138.730469 233.703125 138.511719 235.78125 138.445312 C 235.824219 138.269531 235.847656 138.097656 235.890625 137.921875 C 231.339844 135.339844 226.808594 132.777344 222.257812 130.195312 C 222.804688 129.957031 223.21875 130.019531 223.613281 130.128906 C 227.664062 131.378906 231.644531 132.757812 235.738281 133.808594 C 238.1875 134.441406 240.75 134.660156 243.289062 134.878906 C 244.207031 134.96875 245.167969 134.464844 246.109375 134.246094 C 246.109375 134.113281 246.109375 133.960938 246.109375 133.828125 C 241.011719 131.554688 235.914062 129.277344 230.8125 127 C 231.273438 126.738281 231.644531 126.714844 231.996094 126.78125 C 235.695312 127.527344 239.371094 128.421875 243.089844 129.015625 C 246.503906 129.539062 249.960938 129.847656 253.398438 130.066406 C 254.777344 130.152344 256.132812 129.628906 257.359375 128.421875 C 252.632812 126.824219 248.101562 125.316406 243.570312 123.804688 C 250.640625 123.257812 257.710938 124.769531 264.40625 122.667969 C 255.214844 120.171875 245.914062 117.679688 236.613281 115.160156 C 236.746094 114.941406 236.875 114.722656 236.984375 114.503906 C 236.699219 114.222656 236.480469 113.804688 236.132812 113.675781 C 232.191406 112.03125 228.210938 110.457031 224.269531 108.835938 C 221.667969 107.765625 218.996094 107.21875 216.171875 107.523438 C 210.613281 108.136719 206.851562 111.199219 205.625 116.191406 C 205.320312 117.460938 205.101562 118.75 204.726562 120 C 203.460938 124.089844 200.921875 126.890625 196.652344 127.964844 C 193.722656 128.707031 193.699219 128.707031 193.722656 131.792969 C 193.742188 133.304688 193.414062 134.96875 193.960938 136.257812 C 195.363281 139.496094 197.332031 142.429688 200.199219 144.640625 C 200.527344 144.902344 200.921875 145.035156 201.421875 145.316406 C 201.46875 144.179688 201.511719 143.261719 201.578125 142.078125 C 203.765625 143.699219 205.910156 144.421875 208.449219 144.378906 C 208.230469 142.953125 208.054688 141.792969 207.835938 140.304688 C 210.308594 141.859375 212.605469 143.21875 215.800781 143.0625 Z M 143.761719 126.5625 C 143.804688 126.695312 143.824219 126.824219 143.871094 126.980469 C 138.769531 129.253906 133.671875 131.53125 128.222656 133.960938 C 131 135.230469 133.496094 135.207031 135.949219 134.640625 C 138.332031 134.070312 140.675781 133.28125 143.039062 132.582031 C 146.1875 131.640625 149.339844 130.65625 152.511719 129.714844 C 152.558594 129.824219 152.621094 129.933594 152.667969 130.042969 C 148.027344 132.667969 143.410156 135.296875 138.398438 138.140625 C 143.082031 139.148438 147.238281 138.644531 151.660156 137.375 C 150.828125 138.753906 150.214844 139.738281 149.472656 140.964844 C 153.191406 141.117188 156.058594 139.648438 158.792969 137.832031 C 161.464844 136.082031 164.15625 134.332031 166.824219 132.582031 C 166.914062 132.691406 167 132.800781 167.066406 132.910156 C 165.710938 134.59375 164.351562 136.257812 162.996094 137.941406 C 161.660156 139.585938 160.347656 141.226562 158.859375 143.085938 C 162.054688 143.304688 164.308594 141.859375 166.824219 140.371094 C 166.605469 141.839844 166.429688 143.042969 166.257812 144.3125 C 168.90625 144.574219 170.960938 143.457031 173.105469 142.230469 C 173.148438 143.371094 173.195312 144.246094 173.238281 145.296875 C 173.675781 145.097656 173.980469 145.035156 174.179688 144.859375 C 177.8125 141.53125 181.3125 138.140625 180.960938 132.601562 C 180.898438 131.75 180.898438 130.898438 180.960938 130.042969 C 181.050781 128.949219 180.742188 128.445312 179.519531 128.292969 C 175.425781 127.765625 172.363281 125.644531 170.632812 121.878906 C 169.933594 120.347656 169.515625 118.640625 169.1875 116.976562 C 168.136719 111.375 164.460938 108.203125 157.742188 107.503906 C 155.074219 107.21875 152.578125 107.960938 150.128906 108.96875 C 146.320312 110.542969 142.492188 112.054688 138.660156 113.609375 C 138.113281 113.828125 137.238281 113.871094 138.070312 115.183594 C 128.683594 117.722656 119.425781 120.21875 109.730469 122.820312 C 112.378906 123.171875 114.699219 123.632812 117.019531 123.761719 C 119.382812 123.894531 121.746094 123.675781 124.109375 123.652344 C 126.40625 123.632812 128.703125 123.652344 131.023438 123.652344 C 131.023438 123.71875 131.046875 123.785156 131.046875 123.851562 C 126.515625 125.359375 121.984375 126.890625 117.171875 128.488281 C 119.492188 130.304688 121.855469 130.480469 124.195312 130.21875 C 127.542969 129.847656 130.847656 129.191406 134.152344 128.578125 C 137.390625 127.898438 140.566406 127.21875 143.761719 126.5625 Z M 187.988281 116.386719 C 187.945312 116.257812 187.898438 116.148438 187.855469 116.015625 C 188.929688 115.402344 190.042969 114.855469 191.09375 114.175781 C 194.027344 112.316406 195.011719 108.597656 193.457031 105.402344 C 192.015625 102.425781 188.425781 100.894531 185.296875 101.964844 C 182.515625 102.90625 180.832031 104.875 180.546875 107.808594 C 180.242188 110.960938 181.707031 113.214844 184.441406 114.703125 C 185.230469 115.140625 186.039062 115.554688 186.828125 115.992188 C 186.785156 116.125 186.738281 116.257812 186.695312 116.410156 C 185.230469 116.410156 183.761719 116.410156 182.496094 116.410156 C 183.371094 119.34375 184.660156 122.097656 184.921875 124.964844 C 185.382812 129.757812 185.207031 134.617188 185.316406 139.453125 C 185.46875 147.660156 185.644531 155.84375 185.753906 164.050781 C 185.777344 165.386719 186.367188 165.933594 187.570312 165.84375 C 188.949219 165.757812 188.972656 164.707031 188.992188 163.636719 C 189.191406 151.859375 189.519531 140.085938 189.539062 128.3125 C 189.539062 124.089844 191.09375 120.390625 192.363281 116.410156 C 190.875 116.386719 189.429688 116.386719 187.988281 116.386719 Z M 184.464844 167.070312 C 183.851562 166.742188 183.566406 166.566406 183.261719 166.457031 C 179.167969 164.902344 175.074219 163.371094 171.003906 161.796875 C 169.40625 161.183594 167.808594 160.550781 166.34375 159.71875 C 164.898438 158.90625 164.988281 157.332031 166.519531 156.742188 C 167.371094 156.414062 168.488281 156.433594 169.40625 156.652344 C 171.792969 157.179688 174.179688 157.769531 176.542969 156.980469 C 177.746094 156.566406 178.863281 155.691406 179.847656 154.835938 C 180.394531 154.355469 180.242188 153.765625 179.363281 153.371094 C 178.25 152.867188 177.328125 151.949219 176.214844 151.488281 C 174.945312 150.941406 173.347656 150.109375 172.230469 150.484375 C 170.347656 151.074219 168.554688 151.292969 166.628906 151.335938 C 163.566406 151.421875 160.632812 151.992188 158.117188 153.894531 C 155.664062 155.757812 155.316406 158.46875 157.460938 160.660156 C 158.664062 161.882812 160.171875 162.957031 161.75 163.589844 C 166.824219 165.625 171.988281 167.441406 177.132812 169.324219 C 177.503906 169.457031 177.964844 169.632812 178.292969 169.523438 C 180.304688 168.753906 182.230469 167.945312 184.464844 167.070312 Z M 190.242188 189.984375 C 191.707031 190.703125 192.84375 191.316406 194.027344 191.800781 C 194.332031 191.929688 194.859375 191.84375 195.164062 191.667969 C 197.792969 190.222656 200.570312 188.953125 203 187.203125 C 207.246094 184.160156 207.089844 178.1875 202.890625 175.035156 C 202.125 174.46875 201.292969 173.984375 200.503906 173.460938 C 197.375 171.382812 193.941406 171.578125 190.808594 174.074219 C 192.015625 174.488281 193.195312 174.75 194.246094 175.277344 C 196.433594 176.347656 198.753906 177.335938 200.679688 178.777344 C 203.371094 180.8125 203.152344 183.089844 200.351562 184.972656 C 198.777344 186.023438 197.046875 186.875 195.339844 187.730469 C 193.742188 188.515625 192.125 189.152344 190.242188 189.984375 Z M 184.902344 196.152344 C 183.371094 195.476562 182.167969 194.886719 180.917969 194.382812 C 180.613281 194.25 180.109375 194.359375 179.800781 194.554688 C 175.011719 197.335938 172.253906 201.339844 172.273438 207.050781 C 172.273438 209.65625 173.148438 211.777344 175.25 213.332031 C 177.285156 214.820312 179.300781 216.308594 181.378906 217.730469 C 183.480469 219.199219 183.761719 219.132812 185.515625 216.878906 C 185.121094 216.59375 184.726562 216.289062 184.332031 216.003906 C 182.253906 214.425781 180.019531 213.003906 178.09375 211.253906 C 174.242188 207.773438 174.308594 204.207031 178.074219 200.664062 C 178.992188 199.808594 180.019531 199.085938 181.070312 198.40625 C 182.1875 197.664062 183.390625 197.03125 184.902344 196.152344 Z M 184.464844 213.75 C 184.464844 208.671875 184.464844 203.8125 184.464844 198.648438 C 181.792969 200.160156 179.472656 201.449219 177.964844 203.746094 C 177.109375 205.039062 176.804688 206.460938 177.703125 207.863281 C 179.34375 210.445312 181.945312 211.953125 184.464844 213.75 Z M 190.175781 213.8125 C 192.714844 212 195.253906 210.488281 196.960938 207.972656 C 197.703125 206.878906 197.746094 205.652344 197.179688 204.515625 C 195.757812 201.667969 193.171875 200.203125 190.175781 198.691406 C 190.175781 203.855469 190.175781 208.695312 190.175781 213.8125 Z M 184.070312 175.976562 C 181.75 176.917969 179.671875 177.617188 177.722656 178.582031 C 176.628906 179.105469 175.667969 179.980469 174.726562 180.8125 C 174.003906 181.449219 174.003906 182.234375 174.769531 182.890625 C 177.527344 185.125 180.789062 186.304688 184.046875 187.707031 C 184.070312 183.746094 184.070312 180.070312 184.070312 175.976562 Z M 190.65625 187.640625 C 193.941406 186.261719 197.222656 185.082031 199.980469 182.804688 C 200.875 182.0625 200.546875 181.273438 199.871094 180.617188 C 197.351562 178.210938 194.179688 177.160156 190.65625 176.152344 C 190.65625 180.046875 190.65625 183.722656 190.65625 187.640625 Z M 188.535156 182.105469 C 188.621094 182.105469 188.6875 182.105469 188.773438 182.105469 C 188.773438 180.355469 188.710938 178.601562 188.796875 176.851562 C 188.863281 175.738281 188.535156 175.078125 187.375 175.078125 C 186.300781 175.078125 185.886719 175.671875 185.90625 176.722656 C 186.019531 180.332031 186.128906 183.941406 186.191406 187.554688 C 186.214844 188.40625 186.542969 188.910156 187.394531 188.933594 C 188.292969 188.953125 188.578125 188.40625 188.554688 187.554688 C 188.511719 185.714844 188.535156 183.898438 188.535156 182.105469 Z M 186.410156 206.503906 C 186.5 206.503906 186.609375 206.503906 186.695312 206.503906 C 186.695312 209.109375 186.675781 211.734375 186.738281 214.339844 C 186.738281 214.753906 187.199219 215.171875 187.441406 215.585938 C 187.636719 215.171875 187.988281 214.777344 188.007812 214.363281 C 188.140625 209.195312 188.226562 204.011719 188.335938 198.847656 C 188.359375 198.101562 188.316406 197.25 187.308594 197.46875 C 186.9375 197.554688 186.476562 198.363281 186.457031 198.847656 C 186.347656 201.382812 186.410156 203.945312 186.410156 206.503906 Z M 189.191406 222.984375 C 189.78125 223.507812 190.328125 223.96875 190.832031 224.449219 C 194.050781 227.558594 194.136719 229.59375 191.226562 232.960938 C 190.789062 233.445312 190.351562 233.925781 189.914062 234.40625 C 189.539062 234.824219 189.191406 235.238281 188.839844 235.65625 C 188.992188 235.785156 189.125 235.894531 189.277344 236.027344 C 190.765625 234.429688 192.277344 232.875 193.699219 231.234375 C 195.011719 229.722656 195.253906 227.972656 194.464844 226.179688 C 193.984375 225.085938 193.414062 224.011719 192.691406 223.050781 C 191.292969 221.1875 191.136719 221.210938 189.191406 222.984375 Z M 187.089844 224.320312 C 186.894531 227.492188 186.980469 230.6875 187.242188 233.859375 C 188.03125 231.695312 187.945312 225.105469 187.089844 224.320312 Z M 189.78125 231.476562 C 191.90625 229.265625 191.90625 227.710938 189.78125 226.507812 C 189.78125 228.171875 189.78125 229.703125 189.78125 231.476562 Z M 184.945312 226.417969 C 182.84375 227.667969 182.867188 229.679688 184.945312 231.34375 C 184.945312 229.722656 184.945312 228.171875 184.945312 226.417969 Z M 185.273438 245.371094 C 185.40625 243.335938 185.515625 241.410156 185.625 239.703125 C 184.136719 241.738281 183.9375 243.859375 185.273438 245.371094 Z M 185.273438 245.371094 " fill-opacity="1" fill-rule="nonzero"/></g></svg>